<svg xmlns="http://www.w3.org/2000/svg" xmlns:xlink="http://www.w3.org/1999/xlink" version="1.1" x="0px" y="0px" viewBox="0 0 52 65" style="enable-background:new 0 0 52 52;" xml:space="preserve">
  <g fill="#ffffff">
    <circle cx="26" cy="30" r="5.7"/>
    <path d="M6.1,26.8c0.6,0.1,1.2-0.3,1.3-0.9c0.8-5,3.5-9.4,7.6-12.3c0.5-0.4,0.6-1,0.2-1.5c-0.4-0.5-1-0.6-1.5-0.2 C9.1,15.1,6,20,5.2,25.6C5.1,26.2,5.5,26.7,6.1,26.8z"/>
    <path d="M44.4,25.9c0.1,0.6,0.7,1,1.3,0.9c0.6-0.1,1-0.7,0.9-1.3C45.6,20,42.6,15.1,38,11.8c-0.5-0.4-1.2-0.2-1.5,0.2 c-0.4,0.5-0.2,1.2,0.2,1.5C40.9,16.6,43.6,21,44.4,25.9z"/>
    <path d="M33.3,48.4c-4.7,1.9-9.8,1.8-14.5-0.1c-0.6-0.2-1.2,0-1.4,0.6c-0.2,0.6,0,1.2,0.6,1.4c5.1,2.2,10.8,2.3,16.2,0.2 c0.6-0.2,0.8-0.9,0.6-1.4C34.5,48.5,33.8,48.2,33.3,48.4z"/>
    <path d="M22.3,37c-2.3-1.3-3.9-3.7-4.1-6.5C9,32.3-0.2,38.2,0.7,46.3C7.8,50.6,17,44.2,22.3,37z"/>
    <path d="M33.9,30.5c-0.2,2.8-1.8,5.2-4.1,6.5c5.5,7.5,14.6,13.5,21.6,9.3C52.3,38.2,43,32.3,33.9,30.5z"/>
    <path d="M29.8,23.2c1.4-3.5,2.2-7.5,2.2-11.1c0-5.3-1.7-10-6.1-12.1c-7.3,3.6-7.2,14.5-3.8,23.2C24.6,21.8,27.4,21.8,29.8,23.2z"/>
  </g>
</svg>
