<svg width="1280" height="309" viewBox="0 0 1280 309" fill="none" xmlns="http://www.w3.org/2000/svg">
<path d="M0 213L41.804 142.333L69.6734 166.701L91.5708 99.6897L119.44 120.402V60.7012L155.272 16.8391L193.095 80.1954L236.89 37.5517L308.554 99.6897L382.208 80.1954L414.059 120.402L441.928 60.7012V16.8391L513.593 80.1954L565.35 16.8391L599.191 126.494L631.042 171.575L648.958 156.954L666.874 200.816L720.622 147.207L766.407 213L836.081 99.6897L889.829 182.54L949.549 60.7012L1031.17 166.701L1088.9 60.7012L1132.69 37.5517L1178.48 80.1954L1204.35 126.494L1254.12 37.5517L1280 1" stroke="#5FBEB3" stroke-width="3"/>
<path d="M888 179.742L836.116 100.695L766.272 211.36L720.375 148.123L666.496 197.983L648.536 156.636L630.576 170.013L598.647 125.017L566.719 18L512.839 77.589L441 18L516.83 142.042L560.732 89.75L588.67 232.034L666.496 286.758L696.429 242.979H736.339L776.25 305L836.116 167.581L888 179.742Z" fill="#5FBEB3" fill-opacity="0.21" stroke="#5FBEB3" stroke-width="3"/>
</svg>
