<svg width="37" height="38" viewBox="0 0 37 38" fill="none" xmlns="http://www.w3.org/2000/svg">
<path d="M18.5 37.333C8.28245 37.333 0 29.0506 0 18.833C0 8.61546 8.28245 0.333008 18.5 0.333008C28.7176 0.333008 37 8.61546 37 18.833C37 29.0506 28.7176 37.333 18.5 37.333ZM18.5 33.633C22.4252 33.633 26.1896 32.0737 28.9652 29.2982C31.7407 26.5227 33.3 22.7582 33.3 18.833C33.3 14.9078 31.7407 11.1434 28.9652 8.36783C26.1896 5.59229 22.4252 4.03301 18.5 4.03301C14.5748 4.03301 10.8104 5.59229 8.03482 8.36783C5.25928 11.1434 3.7 14.9078 3.7 18.833C3.7 22.7582 5.25928 26.5227 8.03482 29.2982C10.8104 32.0737 14.5748 33.633 18.5 33.633ZM16.65 9.58301H20.35V13.283H16.65V9.58301ZM16.65 16.983H20.35V28.083H16.65V16.983Z" fill="white"/>
</svg>
