<svg width="41" height="29" viewBox="0 0 41 29" fill="none" xmlns="http://www.w3.org/2000/svg">
<path d="M11.25 3.54175H39M11.25 14.3334H39M11.25 25.1251H39" stroke="#ffffff" stroke-width="3" stroke-linecap="round" stroke-linejoin="round"/>
<path d="M3.54167 5.08333C4.39311 5.08333 5.08333 4.39311 5.08333 3.54167C5.08333 2.69023 4.39311 2 3.54167 2C2.69023 2 2 2.69023 2 3.54167C2 4.39311 2.69023 5.08333 3.54167 5.08333Z" stroke="#ffffff" stroke-width="3" stroke-linecap="round" stroke-linejoin="round"/>
<path d="M3.54167 15.8751C4.39311 15.8751 5.08333 15.1849 5.08333 14.3334C5.08333 13.482 4.39311 12.7917 3.54167 12.7917C2.69023 12.7917 2 13.482 2 14.3334C2 15.1849 2.69023 15.8751 3.54167 15.8751Z" stroke="#ffffff" stroke-width="3" stroke-linecap="round" stroke-linejoin="round"/>
<path d="M3.54167 26.6666C4.39311 26.6666 5.08333 25.9764 5.08333 25.1249C5.08333 24.2735 4.39311 23.5833 3.54167 23.5833C2.69023 23.5833 2 24.2735 2 25.1249C2 25.9764 2.69023 26.6666 3.54167 26.6666Z" stroke="#ffffff" stroke-width="3" stroke-linecap="round" stroke-linejoin="round"/>
</svg>
