<svg width="37" height="37" viewBox="0 0 37 37" fill="none" xmlns="http://www.w3.org/2000/svg">
<path d="M18.5 37C15.9408 37 13.5358 36.5141 11.285 35.5422C9.03417 34.5703 7.07625 33.2525 5.41125 31.5887C3.74625 29.9237 2.42843 27.9658 1.4578 25.715C0.487167 23.4642 0.00123333 21.0592 0 18.5C0 15.9408 0.485933 13.5358 1.4578 11.285C2.42967 9.03417 3.74748 7.07625 5.41125 5.41125C7.07625 3.74625 9.03417 2.42843 11.285 1.4578C13.5358 0.487167 15.9408 0.00123333 18.5 0C21.0592 0 23.4642 0.485933 25.715 1.4578C27.9658 2.42967 29.9237 3.74748 31.5887 5.41125C33.2537 7.07625 34.5722 9.03417 35.544 11.285C36.5159 13.5358 37.0012 15.9408 37 18.5C37 21.0592 36.5141 23.4642 35.5422 25.715C34.5703 27.9658 33.2525 29.9237 31.5887 31.5887C29.9237 33.2537 27.9658 34.5722 25.715 35.544C23.4642 36.5159 21.0592 37.0012 18.5 37ZM18.5 33.3C22.6317 33.3 26.1312 31.8662 28.9987 28.9987C31.8662 26.1312 33.3 22.6317 33.3 18.5C33.3 18.2842 33.2926 18.0603 33.2778 17.8284C33.263 17.5966 33.255 17.4042 33.2537 17.2512C33.0996 18.1454 32.6833 18.8854 32.005 19.4712C31.3267 20.0571 30.525 20.35 29.6 20.35H25.9C24.8825 20.35 24.0118 19.988 23.2878 19.264C22.5638 18.5401 22.2012 17.6687 22.2 16.65V14.8H14.8V11.1C14.8 10.0825 15.1626 9.21177 15.8878 8.4878C16.613 7.76383 17.4837 7.40123 18.5 7.4H20.35C20.35 6.69083 20.543 6.06677 20.929 5.5278C21.3151 4.98883 21.785 4.54915 22.3387 4.20875C21.7221 4.05458 21.098 3.93125 20.4665 3.83875C19.8351 3.74625 19.1796 3.7 18.5 3.7C14.3683 3.7 10.8687 5.13375 8.00125 8.00125C5.13375 10.8687 3.7 14.3683 3.7 18.5H12.95C14.985 18.5 16.7271 19.2246 18.1762 20.6737C19.6254 22.1229 20.35 23.865 20.35 25.9V27.75H14.8V32.8375C15.4167 32.9917 16.0259 33.1076 16.6278 33.1853C17.2297 33.263 17.8537 33.3012 18.5 33.3Z" fill="white"/>
</svg>
